<?xml version="1.0" standalone="no"?>
<!DOCTYPE svg PUBLIC "-//W3C//DTD SVG 20010904//EN"
 "http://www.w3.org/TR/2001/REC-SVG-20010904/DTD/svg10.dtd">
<svg version="1.0" xmlns="http://www.w3.org/2000/svg"
 width="240.000000pt" height="240.000000pt" viewBox="0 0 240.000000 240.000000"
 preserveAspectRatio="xMidYMid meet">
<metadata>
Created by potrace 1.14, written by Peter Selinger 2001-2017
</metadata>
<g transform="translate(0.000000,240.000000) scale(0.100000,-0.100000)"
fill="#000000" stroke="none">
<path d="M71 2387 c-13 -6 -33 -23 -43 -37 -18 -24 -18 -28 -3 -70 9 -25 25
-81 35 -125 25 -104 66 -203 144 -345 35 -63 71 -136 81 -162 10 -27 20 -48
23 -48 11 0 -13 147 -50 310 -21 96 -48 220 -59 275 -11 55 -28 126 -36 158
-15 51 -19 57 -42 57 -14 0 -37 -6 -50 -13z"/>
<path d="M163 2386 c3 -7 19 -78 37 -157 17 -79 52 -226 76 -326 35 -138 48
-214 55 -310 4 -71 9 -139 10 -153 6 -75 17 215 12 325 -10 233 26 387 128
555 l48 80 -185 0 c-153 0 -185 -2 -181 -14z"/>
<path d="M590 1945 l0 -235 185 0 c200 0 238 7 269 51 10 15 16 44 16 77 0 46
-4 58 -29 83 -16 16 -38 29 -48 29 -14 1 -11 4 9 16 30 16 58 61 58 94 0 11
-7 36 -15 56 -23 56 -56 64 -265 64 l-180 0 0 -235z m324 139 c19 -7 21 -55 4
-72 -8 -8 -47 -12 -110 -12 l-98 0 0 45 0 45 94 0 c52 0 101 -3 110 -6z m16
-195 c6 -11 8 -33 5 -50 l-7 -29 -109 0 -109 0 0 50 0 50 105 0 c95 0 105 -2
115 -21z"/>
<path d="M1130 1945 l0 -235 60 0 60 0 0 235 0 235 -60 0 -60 0 0 -235z"/>
<path d="M1459 2167 c-99 -37 -139 -100 -139 -220 0 -121 28 -172 115 -213 38
-18 67 -24 122 -24 83 0 114 10 148 46 l25 27 0 -37 c0 -35 1 -36 40 -36 l40
0 0 130 0 130 -115 0 -115 0 0 -45 0 -45 50 0 c43 0 50 -3 50 -20 0 -47 -108
-75 -170 -43 -51 26 -73 74 -66 147 4 33 13 70 21 82 20 31 82 48 138 40 47
-7 70 -25 82 -64 6 -21 12 -23 66 -20 52 2 59 5 59 23 -1 41 -44 98 -95 124
-40 21 -66 26 -135 29 -52 1 -99 -3 -121 -11z"/>
<path d="M0 1940 c0 -47 4 -59 33 -90 l32 -35 -33 29 -32 30 0 -67 0 -67 70
-35 c39 -19 70 -37 70 -39 0 -2 -23 4 -50 15 -77 29 -90 26 -90 -19 l0 -38 65
-1 c96 -1 152 -32 188 -103 39 -78 44 -142 18 -203 -29 -66 -28 -95 4 -103 55
-14 59 -4 52 119 -12 216 -67 342 -245 562 -36 44 -69 84 -74 90 -4 5 -8 -15
-8 -45z m106 -152 l29 -33 -32 29 c-31 28 -38 36 -30 36 2 0 16 -15 33 -32z"/>
<path d="M766 1212 c-65 -174 -121 -323 -123 -329 -4 -10 17 -13 84 -13 l88 0
28 75 28 75 144 0 144 0 28 -75 28 -75 88 0 c69 0 88 3 85 14 -2 7 -55 156
-118 330 l-115 316 -135 0 -135 0 -119 -318z m262 176 c6 -18 26 -77 45 -130
l36 -98 -91 0 c-81 0 -90 2 -85 18 12 39 82 241 84 242 1 0 6 -15 11 -32z"/>
<path d="M1470 1200 l0 -330 85 0 85 0 0 330 0 330 -85 0 -85 0 0 -330z"/>
<path d="M2180 1056 c-19 -13 -44 -37 -56 -52 -21 -29 -57 -94 -52 -94 9 1
176 67 192 76 13 8 19 24 20 50 1 38 0 39 -34 42 -24 2 -46 -5 -70 -22z"/>
<path d="M430 455 l0 -235 180 0 180 0 0 50 0 50 -132 0 c-103 0 -129 3 -120
12 8 8 12 64 12 185 l0 173 -60 0 -60 0 0 -235z"/>
<path d="M860 455 l0 -235 60 0 60 0 0 235 0 235 -60 0 -60 0 0 -235z"/>
<path d="M1139 675 c-65 -21 -82 -44 -87 -120 -4 -57 -2 -66 21 -89 30 -30 72
-42 202 -57 120 -14 137 -21 133 -57 -4 -31 -26 -40 -109 -41 -74 -1 -117 14
-125 45 -6 22 -11 24 -65 24 l-59 0 0 -31 c0 -37 26 -84 54 -98 69 -34 244
-42 333 -16 68 20 86 43 91 115 8 105 -27 128 -234 151 -126 14 -152 30 -120
75 12 16 27 19 104 19 74 0 94 -3 111 -19 12 -11 21 -25 21 -33 0 -9 16 -13
60 -13 59 0 60 0 60 29 0 47 -39 94 -95 113 -63 21 -230 23 -296 3z"/>
<path d="M1580 640 l0 -50 85 0 c81 0 85 -1 87 -22 0 -13 2 -81 3 -153 1 -72
3 -145 4 -162 l1 -33 61 0 60 0 -3 185 -3 185 88 0 87 0 0 50 0 50 -235 0
-235 0 0 -50z"/>
<path d="M2163 90 c-102 -32 -143 -51 -163 -75 -13 -16 -2 -17 151 -13 144 3
169 6 194 23 l30 19 -47 11 c-50 11 -64 20 -70 46 -3 15 -13 14 -95 -11z"/>
</g>
</svg>
